<?xml version="1.0" standalone="no"?>
<!DOCTYPE svg PUBLIC "-//W3C//DTD SVG 20010904//EN"
 "http://www.w3.org/TR/2001/REC-SVG-20010904/DTD/svg10.dtd">
<svg version="1.0" xmlns="http://www.w3.org/2000/svg"
 width="900.000000pt" height="460.000000pt" viewBox="0 0 900.000000 460.000000"
 preserveAspectRatio="xMidYMid meet">

<g transform="translate(0.000000,460.000000) scale(0.100000,-0.100000)"
fill="#000000" stroke="none">
<path d="M6085 3819 c-71 -11 -386 -56 -700 -100 -1061 -148 -973 -134 -1019
-166 -83 -59 -113 -135 -97 -243 16 -101 15 -122 -6 -116 -10 3 -162 26 -338
51 -176 25 -549 80 -829 120 -279 41 -527 75 -550 75 -56 -1 -114 -29 -158
-78 -21 -23 -40 -42 -43 -42 -3 0 -5 26 -5 58 -1 78 -25 127 -104 206 -95 97
-132 110 -271 103 -60 -4 -456 -25 -880 -47 -924 -47 -927 -48 -983 -85 -45
-30 -86 -89 -96 -140 -4 -16 16 -453 44 -969 55 -1030 50 -986 119 -1051 18
-16 49 -39 70 -50 22 -11 60 -31 85 -45 l46 -24 263 12 c144 7 510 25 812 42
303 16 568 30 591 30 38 0 41 -3 61 -44 12 -24 39 -57 60 -73 21 -15 44 -36
51 -45 7 -10 32 -29 55 -42 37 -22 106 -35 562 -101 286 -42 708 -103 938
-137 450 -65 448 -65 524 -19 66 41 77 78 127 416 25 171 48 335 52 365 12 96
20 85 39 -47 26 -188 48 -222 196 -292 62 -29 99 -41 132 -41 25 0 335 41 689
90 976 138 992 140 1000 140 4 0 10 -17 14 -37 10 -57 40 -109 80 -140 20 -15
56 -44 81 -65 25 -20 64 -41 87 -47 41 -10 1745 -142 1862 -144 75 -1 141 33
180 93 31 47 28 16 115 1150 66 873 66 839 5 908 -18 20 -41 52 -52 70 -22 39
-94 89 -138 97 -17 3 -206 19 -421 35 -1445 110 -1455 111 -1494 100 -78 -21
-141 -83 -160 -159 -5 -20 -13 -80 -17 -134 -3 -54 -8 -96 -10 -95 -2 2 -17
100 -33 218 -17 118 -38 234 -47 257 -8 23 -32 56 -52 73 -20 17 -53 47 -73
65 -76 70 -136 77 -364 44z m303 -33 c17 -9 44 -34 58 -55 29 -45 34 -72 119
-681 l55 -395 -40 -514 c-22 -283 -41 -515 -42 -516 -2 -1 -70 -12 -153 -23
-82 -12 -310 -44 -505 -71 -1173 -165 -1148 -162 -1190 -151 -45 12 -104 59
-125 100 -13 25 -132 844 -256 1756 l-22 161 24 49 c13 26 41 61 61 77 35 28
51 32 335 72 317 46 1324 187 1483 208 102 14 146 10 198 -17z m-4257 -149
c28 -15 54 -40 73 -70 l29 -47 19 -351 19 -350 -96 -657 c-52 -361 -98 -669
-101 -683 -5 -26 -6 -26 -117 -33 -1013 -57 -1656 -87 -1690 -76 -48 14 -106
65 -124 108 -15 36 -18 75 -79 1227 -39 737 -39 722 8 786 11 15 38 37 61 49
40 23 65 25 916 71 1064 57 1025 56 1082 26z m5499 -162 c399 -30 790 -60 870
-65 216 -16 277 -26 314 -51 52 -36 79 -83 84 -147 3 -49 -26 -457 -117 -1634
-21 -264 -25 -280 -82 -336 -62 -61 -19 -62 -1049 17 -1036 79 -989 72 -1045
145 -14 19 -30 49 -35 67 -7 25 4 215 40 694 28 363 59 782 71 930 11 149 25
285 30 303 22 67 103 131 169 132 14 0 351 -25 750 -55z m-4459 -149 c316 -46
692 -101 836 -122 145 -21 267 -41 273 -44 6 -4 42 -233 82 -511 l71 -504 -72
-500 c-40 -275 -77 -518 -83 -540 -14 -53 -80 -119 -136 -134 -36 -10 -71 -8
-215 13 -95 14 -359 53 -587 86 -228 33 -569 83 -758 110 -248 36 -354 56
-382 70 -52 26 -92 87 -97 148 -3 27 17 192 47 397 28 193 87 595 130 895 44
300 84 562 90 583 13 45 64 105 105 123 16 7 51 13 76 14 25 0 304 -38 620
-84z"/>
<path d="M5357 3370 c-104 -16 -191 -31 -195 -34 -3 -4 13 -145 37 -314 24
-169 70 -496 102 -726 32 -230 61 -421 63 -423 9 -9 419 52 423 63 2 6 -41
334 -96 728 -56 394 -101 720 -101 726 0 14 -16 12 -233 -20z m257 -587 c118
-839 112 -793 98 -802 -16 -10 -290 -46 -297 -39 -3 2 -30 182 -60 399 -31
217 -73 518 -95 669 -21 151 -37 276 -36 277 4 5 249 41 282 42 l31 1 77 -547z"/>
<path d="M5356 3274 c-49 -7 -90 -15 -92 -17 -2 -1 10 -95 26 -207 43 -297
150 -1064 150 -1071 0 -6 195 19 226 29 20 7 19 14 -67 627 -48 341 -88 628
-88 638 -1 21 -28 21 -155 1z"/>
<path d="M1010 3305 c-328 -70 -553 -307 -601 -634 -40 -276 77 -575 284 -728
133 -98 259 -141 433 -150 121 -6 207 5 318 40 l69 22 60 -67 60 -68 86 79
c47 43 115 106 151 139 l65 60 -52 55 c-29 31 -53 59 -53 62 0 4 18 44 40 88
51 105 69 177 77 302 22 372 -193 686 -539 786 -94 27 -303 35 -398 14z m405
-79 c228 -77 373 -229 447 -466 20 -64 23 -96 22 -215 0 -124 -3 -149 -27
-220 -14 -44 -45 -111 -68 -149 l-41 -68 52 -53 52 -52 -54 -50 c-29 -27 -77
-72 -107 -99 l-53 -49 -58 62 -57 62 -62 -25 c-106 -43 -192 -56 -326 -51
-205 8 -333 63 -471 201 -64 64 -90 99 -122 166 -60 122 -76 193 -76 335 -1
142 15 211 75 335 71 145 227 280 384 331 97 31 154 38 280 35 110 -3 142 -7
210 -30z"/>
<path d="M1075 3221 c-163 -26 -280 -85 -390 -195 -131 -132 -185 -269 -185
-468 0 -512 477 -814 972 -614 l59 24 51 -54 c28 -30 54 -54 58 -54 3 0 41 32
84 71 l77 72 -51 52 -52 52 35 49 c50 70 74 122 98 211 26 96 29 255 5 355
-56 239 -234 421 -470 483 -73 18 -223 27 -291 16z m237 -230 c64 -20 159 -92
200 -151 96 -140 114 -343 44 -496 l-24 -53 -85 86 -85 86 -81 -73 -81 -74 82
-84 c78 -78 82 -84 64 -97 -61 -46 -249 -44 -348 3 -312 147 -330 660 -29 820
32 18 76 36 97 41 48 12 196 7 246 -8z"/>
<path d="M1101 2969 c-191 -33 -311 -190 -311 -409 1 -266 189 -453 429 -425
95 11 95 15 14 97 -40 41 -73 78 -73 84 0 6 46 52 103 103 l102 91 79 -80 c43
-44 80 -80 81 -80 2 0 11 29 20 64 23 86 17 238 -13 316 -69 176 -241 272
-431 239z m209 -80 c117 -52 191 -180 193 -334 1 -41 -2 -77 -6 -81 -4 -4 -33
22 -65 57 l-59 63 -24 -19 c-49 -39 -279 -249 -279 -255 0 -3 25 -30 55 -60
30 -30 55 -58 55 -63 0 -14 -88 2 -142 25 -59 25 -121 92 -156 166 -24 51 -27
68 -27 172 0 103 3 121 26 170 14 30 37 69 52 85 31 38 112 83 169 95 59 12
154 3 208 -21z"/>
<path d="M7160 3182 c0 -6 -7 -95 -15 -198 -9 -103 -14 -188 -13 -189 2 -2
107 -10 233 -20 127 -9 249 -20 272 -23 l43 -7 -303 -351 -304 -352 -12 -162
c-7 -89 -11 -164 -9 -166 4 -3 971 -78 1118 -86 l45 -3 12 150 c6 83 12 173
12 200 l1 51 -252 17 c-139 10 -265 20 -280 23 -26 5 -14 21 276 359 l305 353
12 161 c6 89 10 163 8 165 -4 3 -791 65 -1051 82 -67 5 -98 4 -98 -4z m595
-92 c226 -17 430 -33 453 -36 l44 -5 -6 -57 c-3 -31 -8 -88 -11 -125 l-7 -68
-333 -387 c-184 -213 -331 -390 -327 -393 4 -3 142 -15 306 -27 164 -12 301
-24 304 -26 5 -6 -16 -268 -23 -274 -2 -3 -238 13 -522 34 l-518 39 2 40 c1
22 5 79 8 127 l7 86 335 389 334 388 -38 7 c-21 4 -141 14 -268 23 -126 8
-245 18 -264 21 l-33 5 7 132 c4 73 9 136 12 140 3 5 33 6 67 3 33 -4 246 -20
471 -36z"/>
<path d="M7246 3048 c-12 -98 -15 -168 -8 -168 48 -1 625 -50 629 -53 2 -3
-65 -85 -150 -183 -85 -99 -244 -283 -354 -411 l-200 -231 -6 -98 c-4 -54 -5
-100 -2 -102 2 -2 201 -19 442 -37 241 -19 459 -36 485 -38 l46 -4 7 104 c4
57 6 105 4 107 -2 2 -141 14 -309 26 -168 12 -313 24 -323 28 -14 6 50 85 337
418 l354 411 7 102 c4 55 3 101 -1 101 -5 0 -209 16 -454 35 -245 19 -457 35
-472 35 -24 0 -27 -4 -32 -42z"/>
<path d="M2689 2633 c-90 -615 -88 -713 20 -880 114 -177 351 -284 631 -286
131 0 209 16 310 65 125 61 240 206 284 360 15 53 146 917 146 963 0 19 -17
23 -212 51 -117 17 -214 30 -216 29 -2 -2 -32 -199 -67 -438 -35 -239 -68
-452 -74 -473 -33 -123 -140 -176 -281 -140 -109 28 -157 80 -166 180 -4 33
17 201 60 491 36 242 62 443 58 446 -4 4 -92 19 -197 34 -104 15 -199 29 -211
31 -19 5 -23 -11 -85 -433z m309 340 c67 -9 122 -21 122 -26 0 -5 -27 -196
-61 -425 -63 -435 -66 -488 -33 -555 27 -53 85 -106 140 -126 163 -62 315 -18
378 108 30 60 27 40 95 509 33 222 61 406 64 408 2 2 73 -6 158 -19 151 -23
154 -24 152 -48 -11 -107 -126 -856 -139 -899 -54 -185 -191 -317 -374 -361
-90 -22 -267 -15 -382 15 -283 73 -438 255 -438 516 0 41 28 268 62 503 l62
429 36 -6 c19 -3 90 -14 158 -23z"/>
<path d="M2822 2883 c-6 -43 -33 -220 -59 -393 -55 -367 -60 -485 -24 -585 75
-210 272 -328 571 -342 129 -6 204 7 300 54 106 52 195 167 234 304 12 44 122
763 129 848 2 24 -1 25 -117 43 -84 13 -122 15 -126 8 -4 -6 -12 -50 -18 -98
-38 -303 -103 -705 -123 -757 -28 -75 -96 -145 -164 -168 -113 -39 -275 -10
-359 64 -114 100 -117 152 -42 663 31 208 56 383 56 390 0 7 -33 17 -87 24
-49 7 -104 15 -124 18 l-35 6 -12 -79z"/>
</g>
</svg>
