<?xml version="1.0" standalone="no"?>
<!DOCTYPE svg PUBLIC "-//W3C//DTD SVG 20010904//EN"
 "http://www.w3.org/TR/2001/REC-SVG-20010904/DTD/svg10.dtd">
<svg version="1.0" xmlns="http://www.w3.org/2000/svg"
 width="256.000000pt" height="256.000000pt" viewBox="0 0 256.000000 256.000000"
 preserveAspectRatio="xMidYMid meet">

<g transform="translate(0.000000,256.000000) scale(0.100000,-0.100000)"
fill="#000000" stroke="none">
<path d="M1105 2380 c-807 -92 -1270 -875 -901 -1523 58 -101 141 -202 221
-269 35 -29 64 -59 64 -67 1 -7 -15 -83 -35 -168 -28 -122 -33 -157 -24 -168
7 -8 17 -15 22 -15 5 0 90 43 187 95 l177 94 64 -20 c166 -51 425 -67 601 -35
454 82 812 391 920 796 33 123 34 348 1 470 -110 405 -458 708 -911 794 -106
20 -283 27 -386 16z m400 -91 c103 -21 246 -72 325 -117 252 -144 420 -345
496 -597 25 -81 27 -105 27 -240 0 -134 -2 -159 -26 -238 -114 -374 -437 -644
-862 -723 -138 -25 -386 -15 -520 21 -55 15 -110 29 -122 32 -15 3 -68 -20
-164 -71 -78 -42 -144 -75 -145 -73 -1 1 12 62 28 136 l31 134 -64 56 c-137
119 -216 219 -279 354 -160 341 -85 743 190 1018 275 275 677 389 1085 308z"/>
<path d="M553 1640 c-143 -30 -218 -136 -217 -307 1 -72 5 -91 33 -147 51
-105 126 -146 260 -146 42 1 90 7 106 14 28 12 34 10 80 -20 63 -41 97 -50
114 -30 25 30 12 49 -73 101 -14 9 -12 17 17 75 29 59 32 72 32 160 0 116 -14
159 -72 221 -64 68 -178 100 -280 79z m158 -113 c51 -33 79 -97 79 -178 0 -69
-13 -124 -36 -148 -11 -13 -20 -11 -64 13 -57 31 -95 32 -95 1 0 -13 15 -28
43 -43 23 -13 40 -28 37 -33 -9 -14 -93 -11 -124 6 -125 64 -134 307 -15 385
42 29 130 27 175 -3z"/>
<path d="M1526 1624 c-32 -32 -11 -84 34 -84 53 0 78 50 42 83 -23 21 -56 22
-76 1z"/>
<path d="M1021 1466 c-9 -11 -11 -64 -9 -185 l3 -171 31 -31 c54 -53 157 -52
219 3 l35 30 0 -24 c0 -32 18 -48 52 -48 42 0 48 28 48 223 0 188 -7 217 -55
217 -48 0 -55 -21 -55 -156 0 -137 -10 -172 -55 -192 -57 -26 -99 -9 -115 46
-5 20 -10 91 -10 158 0 80 -4 124 -12 132 -16 16 -63 15 -77 -2z"/>
<path d="M1526 1464 c-13 -13 -16 -46 -16 -200 0 -109 4 -193 10 -205 15 -27
64 -25 84 3 13 18 16 55 16 198 0 143 -3 180 -16 198 -18 26 -56 29 -78 6z"/>
<path d="M1710 1455 c-6 -8 -10 -22 -8 -32 3 -16 17 -18 116 -21 61 -1 112 -6
112 -10 0 -4 -54 -67 -120 -141 -174 -195 -171 -201 85 -201 187 0 205 4 205
41 0 29 -19 34 -146 39 l-121 5 118 132 c94 105 119 139 119 162 0 17 -6 31
-16 35 -9 3 -87 6 -174 6 -125 0 -160 -3 -170 -15z"/>
</g>
</svg>
